Patient4_TMGait_0pt5_01_left_41_GRF.mot
version=1
nRows=65
nColumns=19
inDegrees=no
endheader
time	F1x	F1y	F1z	M1x	M1y	M1z	F2x	F2y	F2z	M2x	M2y	M2z	EC1x	EC1y	EC1z	EC2x	EC2y	EC2z
54.63	-4.4436	13.1757	-5.0849	-0.77814	-0.87121	18.312	-39.5733	694.486	-63.8354	253.3134	69.0725	607.5993	-0.0592	0.0182	-0.0073	-0.0462	0.0165	0.9585
54.6432	-3.0344	9.6038	-3.3856	-0.7753	-0.62695	13.0406	-38.6393	697.5682	-62.3715	255.1052	66.8218	606.7077	-0.0592	0.0182	-0.0073	-0.0462	0.0165	0.9585
54.6564	-1.8609	6.5876	-1.9215	-0.7784	-0.44679	8.5874	-36.9205	703.4934	-60.579	258.1965	64.0396	607.0897	-0.0592	0.0182	-0.0073	-0.0462	0.0165	0.9585
54.6696	-0.97676	4.3132	-0.79504	-0.79179	-0.32296	5.2171	-34.2276	712.5675	-58.5244	262.7261	60.7423	608.9624	-0.0592	0.0182	-0.0073	-0.0462	0.0165	0.9585
54.6829	-0.38498	2.779	-0.0034719	-0.81602	-0.25916	2.9329	-30.4146	724.5057	-56.3348	268.5977	56.9858	612.1015	-0.0592	0.0182	-0.0073	-0.0462	0.0165	0.9585
54.6961	-0.040679	1.867	0.49545	-0.84522	-0.24265	1.5642	-25.4125	738.4846	-54.1719	275.4871	52.8669	615.9007	-0.0592	0.0182	-0.0073	-0.0462	0.0165	0.9585
54.7093	0.11637	1.4033	0.77886	-0.86616	-0.27307	0.86833	-19.314	753.3357	-52.1896	282.9074	48.526	619.5694	-0.0592	0.0182	-0.0073	-0.0462	0.0165	0.9585
54.7225	0.12475	1.2062	0.90769	-0.86232	-0.3346	0.59926	-12.4155	767.7033	-50.509	290.266	44.1474	622.2733	-0.0592	0.0182	-0.0073	-0.0462	0.0165	0.9585
54.7357	0.033947	1.0853	0.9479	-0.80819	-0.41858	0.49353	-5.191	780.1667	-49.223	296.9207	39.9601	623.2155	-0.0592	0.0182	-0.0073	-0.0462	0.0165	0.9585
54.7489	-0.13762	0.86816	0.93247	-0.67532	-0.50937	0.34164	1.806	789.383	-48.3785	302.2514	36.1899	621.6919	-0.0592	0.0182	-0.0073	-0.0462	0.0165	0.9585
54.7621	-0.34647	0.38114	0.89963	-0.43415	-0.6085	-0.062043	8.0838	794.3192	-47.9783	305.7696	33.0175	617.2151	-0.0592	0.0182	-0.0073	-0.0462	0.0165	0.9585
54.7754	-0.5653	-0.50385	0.86256	-0.060257	-0.70545	-0.84525	13.3099	794.511	-47.9452	307.2327	30.5127	609.6684	-0.0592	0.0182	-0.0073	-0.0462	0.0165	0.9585
54.7886	-0.75355	-1.8668	0.83673	0.46699	-0.79062	-2.0869	17.3718	790.1404	-48.1691	306.6808	28.6444	599.3266	-0.0592	0.0182	-0.0073	-0.0462	0.0165	0.9585
54.8018	-0.85105	-3.7059	0.809	1.1458	-0.82813	-3.7884	20.3644	781.9745	-48.5478	304.4096	27.3053	586.8124	-0.0592	0.0182	-0.0073	-0.0462	0.0165	0.9585
54.815	-0.79235	-5.8931	0.7673	1.9334	-0.78416	-5.8191	22.5414	771.2593	-49.0182	300.9206	26.3565	573.021	-0.0592	0.0182	-0.0073	-0.0462	0.0165	0.9585
54.8282	-0.4707	-8.1202	0.6827	2.7225	-0.59723	-7.899	24.2321	759.5016	-49.5569	296.8285	25.6567	558.9898	-0.0592	0.0182	-0.0073	-0.0462	0.0165	0.9585
54.8414	0.22284	-9.7938	0.5281	3.306	-0.20457	-9.4685	25.7573	748.1648	-50.17	292.733	25.0888	545.7258	-0.0592	0.0182	-0.0073	-0.0462	0.0165	0.9585
54.8546	1.4311	-9.9777	0.26394	3.3543	0.47318	-9.662	27.3498	738.3477	-50.8621	289.0869	24.5658	533.9914	-0.0592	0.0182	-0.0073	-0.0462	0.0165	0.9585
54.8679	3.2586	-7.3317	-0.1407	2.3942	1.4966	-7.2349	29.1094	730.56	-51.629	286.1052	24.0476	524.1528	-0.0592	0.0182	-0.0073	-0.0462	0.0165	0.9585
54.8811	5.7586	-0.11671	-0.71095	-0.19025	2.9029	-0.5762	30.9949	724.5966	-52.4326	283.7165	23.5263	516.101	-0.0592	0.0182	-0.0073	-0.0462	0.0165	0.9585
54.8943	8.8631	13.6947	-1.4315	-5.1181	4.6498	12.1985	32.8172	719.5304	-53.2027	281.5601	23.0319	509.2581	-0.0592	0.0182	-0.0073	-0.0462	0.0165	0.9585
54.9075	12.2815	36.1544	-2.2458	-13.1159	6.5787	33.0057	34.2987	713.7965	-53.813	279.0235	22.5968	502.6084	-0.0592	0.0182	-0.0073	-0.0462	0.0165	0.9585
54.9207	15.3927	68.8005	-3.0095	-24.7246	8.3327	63.2771	35.1341	705.4159	-54.0893	275.3357	22.2369	494.8471	-0.0592	0.0182	-0.0073	-0.0462	0.0165	0.9585
54.9339	17.1431	111.8706	-3.4839	-40.0194	9.3179	103.255	35.0637	692.3009	-53.8053	269.6968	21.9169	484.5606	-0.0592	0.0182	-0.0073	-0.0462	0.0165	0.9585
54.9471	16.2842	163.3955	-3.3222	-58.2863	8.7737	151.1336	33.9218	672.7177	-52.7301	261.4632	21.5658	470.5342	-0.0592	0.0182	-0.0073	-0.0462	0.0165	0.9585
54.9604	12.1868	218.601	-2.0676	-77.8001	6.0628	202.4864	31.7208	645.8264	-50.6699	250.3565	21.062	452.0994	-0.0592	0.0182	-0.0073	-0.0462	0.0165	0.9585
54.9736	5.9497	271.3079	0.84775	-96.3335	1.0504	251.4907	28.6973	612.1127	-47.5596	236.6236	20.2747	429.4182	-0.0592	0.0182	-0.0073	-0.0462	0.0165	0.9585
54.9868	-0.94347	317.4782	5.1039	-112.4616	-5.4018	294.1988	25.2877	573.4502	-43.5165	221.0407	19.0973	403.5626	-0.0592	0.0182	-0.0073	-0.0462	0.0165	0.9585
55	-7.3839	356.1986	10.0271	-125.8883	-12.2582	329.6572	22.046	532.411	-38.8948	204.6367	17.5268	376.06	-0.0592	0.0182	-0.0073	-0.0462	0.0165	0.9585
55.0132	-12.8134	388.1812	14.8903	-136.9094	-18.6375	358.585	19.445	491.378	-34.1284	188.3488	15.6317	348.3498	-0.0592	0.0182	-0.0073	-0.0462	0.0165	0.9585
55.0264	-17.1363	414.7277	19.1156	-146.0205	-23.9775	382.2921	17.7675	452.0907	-29.5858	172.8457	13.5112	321.5162	-0.0592	0.0182	-0.0073	-0.0462	0.0165	0.9585
55.0396	-20.5125	437.0564	22.318	-153.6705	-27.9878	402.0048	17.0536	415.5533	-25.4784	158.5008	11.2656	296.2342	-0.0592	0.0182	-0.0073	-0.0462	0.0165	0.9585
55.0529	-23.0868	456.0853	24.3844	-160.179	-30.6276	418.6302	17.1569	382.1357	-21.8498	145.4408	8.9659	272.7983	-0.0592	0.0182	-0.0073	-0.0462	0.0165	0.9585
55.0661	-24.9891	472.5808	25.4554	-165.7911	-32.0756	432.9013	17.7969	351.664	-18.6676	133.5807	6.6976	251.1678	-0.0592	0.0182	-0.0073	-0.0462	0.0165	0.9585
55.0793	-26.333	487.3535	25.8863	-170.7528	-32.698	445.5579	18.629	323.472	-15.902	122.6505	4.5811	230.964	-0.0592	0.0182	-0.0073	-0.0462	0.0165	0.9585
55.0925	-27.2554	501.232	26.1207	-175.3258	-32.9471	457.3019	19.2722	296.6096	-13.5634	112.2736	2.775	211.6079	-0.0592	0.0182	-0.0073	-0.0462	0.0165	0.9585
55.1057	-27.9506	515.1456	26.6193	-179.8155	-33.3124	468.917	19.399	270.1281	-11.6896	102.077	1.4382	192.5025	-0.0592	0.0182	-0.0073	-0.0462	0.0165	0.9585
55.1189	-28.5069	530.2688	27.6598	-184.6357	-34.0784	481.3382	18.7605	243.362	-10.2892	91.7991	0.67778	173.2346	-0.0592	0.0182	-0.0073	-0.0462	0.0165	0.9585
55.1321	-28.9495	547.9229	29.3306	-190.2689	-35.3379	495.6286	17.2372	216.0506	-9.31	81.3388	0.51296	153.6554	-0.0592	0.0182	-0.0073	-0.0462	0.0165	0.9585
55.1454	-29.2326	569.15	31.57	-197.1031	-37.0267	512.5856	14.9087	188.327	-8.6213	70.752	0.8387	133.8553	-0.0592	0.0182	-0.0073	-0.0462	0.0165	0.9585
55.1586	-29.3046	594.369	34.352	-205.2941	-39.1101	532.4988	11.9954	160.6199	-8.067	60.2067	1.4775	114.1222	-0.0592	0.0182	-0.0073	-0.0462	0.0165	0.9585
55.1718	-29.1534	623.2045	37.599	-214.7149	-41.5166	555.0008	8.8049	133.4927	-7.5008	49.9238	2.2189	94.8166	-0.0592	0.0182	-0.0073	-0.0462	0.0165	0.9585
55.185	-28.7675	654.5834	41.2384	-224.9876	-44.1846	579.1683	5.6182	107.5807	-6.825	40.1441	2.8872	76.3778	-0.0592	0.0182	-0.0073	-0.0462	0.0165	0.9585
55.1982	-28.1468	686.9535	45.0868	-235.569	-46.9557	603.7247	2.6864	83.5089	-5.9897	31.0988	3.3528	59.2638	-0.0592	0.0182	-0.0073	-0.0462	0.0165	0.9585
55.2114	-27.2985	718.5003	48.9706	-245.8252	-49.6872	627.1956	0.2166	61.8388	-5.0042	22.99	3.5459	43.8874	-0.0592	0.0182	-0.0073	-0.0462	0.0165	0.9585
55.2246	-26.2476	747.4184	52.6759	-255.129	-52.1996	648.138	-1.6194	43.0612	-3.9207	15.9899	3.4397	30.6041	-0.0592	0.0182	-0.0073	-0.0462	0.0165	0.9585
55.2379	-25.0069	772.0929	56.0422	-262.9248	-54.3594	665.2879	-2.6712	27.5582	-2.8363	10.231	3.0536	19.6672	-0.0592	0.0182	-0.0073	-0.0462	0.0165	0.9585
55.2511	-23.5753	791.2542	58.8922	-268.7859	-56.0066	677.663	-2.94	15.5853	-1.8427	5.7981	2.4516	11.2418	-0.0592	0.0182	-0.0073	-0.0462	0.0165	0.9585
55.2643	-21.9679	804.0894	61.1319	-272.4446	-57.0609	684.6549	-2.6921	7.1322	-1.0256	2.6779	1.7901	5.3007	-0.0592	0.0182	-0.0073	-0.0462	0.0165	0.9585
55.2775	-20.1925	810.315	62.6945	-273.8186	-57.4671	686.0799	-2.1987	1.7682	-0.42456	0.7046	1.1969	1.5509	-0.0592	0.0182	-0.0073	-0.0462	0.0165	0.9585
55.2907	-18.2499	810.2686	63.6024	-273.035	-57.2466	682.2776	-1.6407	-1.1738	-0.019746	-0.37213	0.72193	-0.47267	-0.0592	0.0182	-0.0073	-0.0462	0.0165	0.9585
55.3039	-16.1467	804.8396	63.9042	-270.4115	-56.4365	674.0198	-1.1161	-2.4005	0.22102	-0.81574	0.37876	-1.2959	-0.0592	0.0182	-0.0073	-0.0462	0.0165	0.9585
55.3171	-13.907	795.2692	63.7402	-266.3815	-55.1624	662.3534	-0.69256	-2.5135	0.34029	-0.85089	0.15365	-1.3398	-0.0592	0.0182	-0.0073	-0.0462	0.0165	0.9585
55.3304	-11.5469	782.9943	63.2403	-261.4415	-53.5385	648.4657	-0.3673	-2.0168	0.3754	-0.66199	0.016442	-0.97228	-0.0592	0.0182	-0.0073	-0.0462	0.0165	0.9585
55.3436	-9.0946	769.5257	62.5678	-256.1028	-51.7161	633.6059	-0.15057	-1.2508	0.36319	-0.37578	-0.059275	-0.42028	-0.0592	0.0182	-0.0073	-0.0462	0.0165	0.9585
55.3568	-6.5855	756.2787	61.8518	-250.8403	-49.8195	618.9265	-0.014168	-0.44317	0.32403	-0.075055	-0.090566	0.15218	-0.0592	0.0182	-0.0073	-0.0462	0.0165	0.9585
55.37	-4.0806	744.4428	61.2196	-246.0487	-47.9806	605.3914	0.054468	0.28764	0.27896	0.19721	-0.096423	0.66846	-0.0592	0.0182	-0.0073	-0.0462	0.0165	0.9585
55.3832	-1.6252	734.8819	60.7327	-242.016	-46.2695	593.6816	0.070494	0.88102	0.23544	0.4197	-0.084769	1.0864	-0.0592	0.0182	-0.0073	-0.0462	0.0165	0.9585
55.3964	0.74727	728.0909	60.4215	-238.9114	-44.7325	584.1704	0.057015	1.3099	0.19872	0.58383	-0.065004	1.3809	-0.0592	0.0182	-0.0073	-0.0462	0.0165	0.9585
55.4096	3.0105	724.199	60.2558	-236.7894	-43.3582	576.9275	0.0048062	1.5807	0.1677	0.68962	-0.035026	1.5679	-0.0592	0.0182	-0.0073	-0.0462	0.0165	0.9585
55.4229	5.1649	723.0345	60.1997	-235.608	-42.1261	571.7848	-0.073611	1.6866	0.1416	0.7341	0.0030094	1.6174	-0.0592	0.0182	-0.0073	-0.0462	0.0165	0.9585
55.4361	7.2306	724.2153	60.1785	-235.2587	-40.9755	568.4235	-0.19555	1.6302	0.11567	0.71316	0.056511	1.5303	-0.0592	0.0182	-0.0073	-0.0462	0.0165	0.9585
55.4493	9.2549	727.2053	60.1316	-235.5834	-39.8555	566.402	-0.34791	1.381	0.08329	0.61158	0.12528	1.2693	-0.0592	0.0182	-0.0073	-0.0462	0.0165	0.9585
55.4625	11.2861	731.4172	59.9811	-236.4068	-38.6934	565.2499	-0.52562	0.90014	0.036909	0.40857	0.21232	0.79907	-0.0592	0.0182	-0.0073	-0.0462	0.0165	0.9585
55.4757	13.3811	736.2589	59.6924	-237.5468	-37.4463	564.5046	-0.71809	0.13491	-0.021853	0.079286	0.31047	0.07171	-0.0592	0.0182	-0.0073	-0.0462	0.0165	0.9585
